HIERARCHY
ROOT Bip001_Pelvis
{
  OFFSET 2.62766 95.5349 -9.95198
  CHANNELS 6 Xposition Yposition Zposition Zrotation Xrotation Yrotation
  JOINT Bip001_Spine
  {
    OFFSET 1.44608e-005 10.4157 -0.0118244
    CHANNELS 3 Zrotation Xrotation Yrotation
    JOINT Bip001_L_Thigh
    {
      OFFSET 11.2582 -10.4157 0.0118432
      CHANNELS 3 Zrotation Xrotation Yrotation
      JOINT Bip001_L_Calf
      {
        OFFSET -0.720717 -44.8687 0.366937
        CHANNELS 3 Zrotation Xrotation Yrotation
        JOINT Bip001_L_Foot
        {
          OFFSET -0.664439 -41.3745 -3.62995
          CHANNELS 3 Zrotation Xrotation Yrotation
          JOINT Bip001_L_Toe0
          {
            OFFSET 0.0541047 -10.4146 13.4033
            CHANNELS 3 Zrotation Xrotation Yrotation
            End Site
            {
              OFFSET -1.04503e-005 0 7.70137
            }
          }
        }
      }
    }
    JOINT Bip001_R_Thigh
    {
      OFFSET -11.2582 -10.4156 0.0118122
      CHANNELS 3 Zrotation Xrotation Yrotation
      JOINT Bip001_R_Calf
      {
        OFFSET 0.72059 -44.8687 0.36676
        CHANNELS 3 Zrotation Xrotation Yrotation
        JOINT Bip001_R_Foot
        {
          OFFSET 0.664321 -41.3745 -3.62979
          CHANNELS 3 Zrotation Xrotation Yrotation
          JOINT Bip001_R_Toe0
          {
            OFFSET -0.05417 -10.4146 13.4033
            CHANNELS 3 Zrotation Xrotation Yrotation
            End Site
            {
              OFFSET -1.04873e-005 0 7.70137
            }
          }
        }
      }
    }
    JOINT Bip001_Spine1
    {
      OFFSET 1.90638e-005 14.8539 1.10727
      CHANNELS 3 Zrotation Xrotation Yrotation
      JOINT Bip001_Spine2
      {
        OFFSET 2.28934e-005 14.7848 -1.7233
        CHANNELS 3 Zrotation Xrotation Yrotation
        JOINT Bip001_Neck
        {
          OFFSET 2.24514e-005 15.6905 -0.498826
          CHANNELS 3 Zrotation Xrotation Yrotation
          JOINT Bip001_L_Clavicle
          {
            OFFSET 6.17691 -0.000591152 0.00852867
            CHANNELS 3 Zrotation Xrotation Yrotation
            JOINT Bip001_L_UpperArm
            {
              OFFSET 11.773 -0.0611878 0.00197697
              CHANNELS 3 Zrotation Xrotation Yrotation
              JOINT Bip001_L_Forearm
              {
                OFFSET 26.4515 0.0817566 -2.1958
                CHANNELS 3 Zrotation Xrotation Yrotation
                JOINT Bip001_L_Hand
                {
                  OFFSET 32.8677 0.156743 1.67112
                  CHANNELS 3 Zrotation Xrotation Yrotation
                  JOINT Bip001_L_Finger0
                  {
                    OFFSET 6.16268 -2.25225 6.01675
                    CHANNELS 3 Zrotation Xrotation Yrotation
                    End Site
                    {
                      OFFSET 4.30499 -1.46662 0.618149
                    }
                  }
                  JOINT Bip001_L_Finger1
                  {
                    OFFSET 11.2958 -0.718372 -0.201963
                    CHANNELS 3 Zrotation Xrotation Yrotation
                    End Site
                    {
                      OFFSET 6.31953 -0.405162 -0.0802303
                    }
                  }
                }
              }
            }
          }
          JOINT Bip001_R_Clavicle
          {
            OFFSET -6.17691 -0.000574027 0.00851164
            CHANNELS 3 Zrotation Xrotation Yrotation
            JOINT Bip001_R_UpperArm
            {
              OFFSET -11.773 -0.0611516 0.00194365
              CHANNELS 3 Zrotation Xrotation Yrotation
              JOINT Bip001_R_Forearm
              {
                OFFSET -26.4514 0.0822335 -2.19736
                CHANNELS 3 Zrotation Xrotation Yrotation
                JOINT Bip001_R_Hand
                {
                  OFFSET -32.8678 0.156816 1.67144
                  CHANNELS 3 Zrotation Xrotation Yrotation
                  JOINT Bip001_R_Finger0
                  {
                    OFFSET -6.16272 -2.25224 6.01671
                    CHANNELS 3 Zrotation Xrotation Yrotation
                    End Site
                    {
                      OFFSET -4.30501 -1.46661 0.618135
                    }
                  }
                  JOINT Bip001_R_Finger1
                  {
                    OFFSET -11.2958 -0.718342 -0.201994
                    CHANNELS 3 Zrotation Xrotation Yrotation
                    End Site
                    {
                      OFFSET -6.31954 -0.405145 -0.0802477
                    }
                  }
                }
              }
            }
          }
          JOINT Bip001_Head
          {
            OFFSET 1.11782e-005 11.4912 2.09908
            CHANNELS 3 Zrotation Xrotation Yrotation
            End Site
            {
              OFFSET 2.95145e-005 21.2823 -2.83069e-005
            }
          }
        }
      }
    }
  }
}
MOTION
Frames:	7
Frame Time:	0.0333333
-11.0459 94.3825 -12.9094 0.860063 -2.00976 -137.255 0.810685 1.13347 -0.354932 -4.80426 -9.61346 3.2436 -0.0403019 25.6266 -2.65863 8.85501 11.5074 -2.24959 -4.32631e-007 -4.08942e-007 4.36221e-007 0.352554 -19.1604 1.17857 -0.153075 38.733 1.07712 7.59612 -20.7461 -0.949792 4.31427e-007 1.47477e-008 2.03453e-007 1.62882 2.26177 -0.724567 1.62881 2.26177 -0.724582 -7.18395 -3.7411 -9.94181 -21.6824 6.4192 -5.02637 -39.6211 24.1007 0.602758 -3.45539 1.26697 -37.1176 15.9935 16.3677 -7.13459 7.95139e-016 -3.18055e-015 -0 1.59028e-015 -1.59028e-015 3.18055e-015 28.7537 13.1689 20.428 36.8899 41.7656 -2.35932 -0.856888 -2.15342 29.0983 -2.04278 -5.29493 3.18931 -3.18055e-015 1.59028e-015 -3.57812e-015 3.31043e-032 7.95139e-016 -2.38542e-015 8.6606 -3.82759 -18.1186 
-11.7483 94.483 -12.4648 1.34754 -2.3439 -140.998 0.804515 1.07463 -0.363436 -3.04469 -8.76351 2.19628 -0.0314138 19.8373 -1.71605 10.3531 9.04398 -7.95344 -4.32631e-007 -4.08942e-007 4.36221e-007 0.124006 -19.6245 1.74529 -0.148688 38.3489 1.02243 6.98346 -19.8474 0.627887 4.31427e-007 1.47477e-008 2.03453e-007 1.61612 2.14393 -0.744321 1.61612 2.14395 -0.744281 -7.15806 -4.85053 -9.4881 -21.8833 7.62273 -5.11427 -39.1786 24.7878 0.626391 -3.5167 1.31728 -37.903 14.542 14.1953 -6.35612 4.77083e-015 3.18055e-015 -3.18055e-015 3.18055e-015 3.18056e-015 -0 28.645 13.9137 19.6228 37.0219 42.9439 -2.33497 -0.65769 -2.16812 30.5438 -2.90825 -6.92462 2.73975 3.18055e-015 -7.95139e-016 -1.49088e-015 -1.93108e-032 -7.95139e-016 -1.39149e-015 8.13378 -3.85775 -16.8182 
-12.3854 94.5645 -11.9759 2.39049 -2.40107 -144.24 0.894954 0.910009 -0.412279 -0.560747 -8.49239 0.994814 -0.0170732 15.8378 -0.814556 10.3267 2.69429 -14.2391 -4.32631e-007 -4.08942e-007 4.36221e-007 0.271252 -19.8776 1.68395 -0.136585 37.4479 0.98145 6.27942 -18.8818 2.0971 4.31427e-007 1.47477e-008 2.03453e-007 1.79677 1.81351 -0.837665 1.79673 1.81351 -0.837613 -6.8385 -5.82557 -8.96261 -22.2582 8.69541 -5.35868 -38.7773 25.4864 0.54741 -3.50615 1.30853 -37.7676 11.7834 10.7045 -4.88449 -6.36111e-015 3.18055e-015 3.18055e-015 -4.77083e-015 -3.18056e-015 -0 28.3891 14.4868 18.7563 37.5057 43.8693 -2.87633 -0.528052 -2.17505 31.4829 -3.01399 -7.68484 2.90429 -3.18055e-015 1.09332e-015 -1.39149e-015 -6.36111e-015 9.93924e-017 -1.14301e-015 7.72149 -3.46234 -15.6629 
-13.2859 94.7616 -11.3965 2.68882 -2.729 -147.792 0.904331 0.839975 -0.401391 1.02519 -7.84957 0.634012 -0.00952821 11.7177 -0.199508 8.21823 -3.08002 -18.2457 -4.32631e-007 -4.08942e-007 4.36221e-007 -0.425805 -20.0259 1.46791 -0.12904 36.551 0.917332 5.25732 -17.9561 3.62863 4.31427e-007 1.47477e-008 2.03453e-007 1.81468 1.66658 -0.814605 1.81472 1.66656 -0.814553 -6.72701 -6.93525 -8.43584 -22.5518 9.92413 -5.52209 -38.4768 26.0881 0.356532 -3.41324 1.23313 -36.5813 11.1509 10.2872 -4.67751 3.18055e-015 3.18055e-015 3.18055e-015 1.59028e-015 0 -0 28.2912 15.191 17.8259 38.2683 45.0319 -3.20869 -0.534406 -2.17488 31.4382 -2.82867 -7.58035 2.79825 -4.13804e-033 -3.97569e-016 -5.96354e-016 -3.18055e-015 3.97569e-016 1.19271e-015 7.43761 -3.25531 -14.6868 
-14.3579 94.9296 -10.7823 2.54902 -2.93595 -151.438 0.884116 0.847983 -0.36554 1.5881 -8.72925 1.25919 -0.00543261 11.9341 -0.0911401 6.28994 -6.53207 -19.7224 -4.32631e-007 -4.08942e-007 4.36221e-007 -1.41911 -20.1324 1.38511 -0.122725 35.9351 0.877991 4.49435 -17.27 5.22343 4.31427e-007 1.47477e-008 2.03453e-007 1.77462 1.6888 -0.742925 1.77465 1.68879 -0.742857 -6.61563 -7.88558 -7.7955 -22.7466 11.0364 -5.79949 -38.3369 26.6484 0.126898 -3.27404 1.12591 -34.8403 9.68255 9.44576 -4.3952 1.59028e-015 6.36111e-015 -3.18055e-015 1.59028e-015 6.36111e-015 -3.18055e-015 28.4324 15.7409 16.8078 39.0928 45.511 -3.61442 -0.631181 -2.17008 30.7407 -2.29662 -7.05799 3.22169 3.18055e-015 0 -9.93923e-016 1.59028e-015 1.59028e-015 -1.59028e-015 7.1946 -3.28773 -13.6929 
-15.4208 94.9659 -10.1894 2.57608 -2.81075 -154.958 0.930683 0.860584 -0.356273 1.30534 -8.4893 0.86957 -0.00122181 11.9984 -0.0661861 5.58833 -7.61986 -18.3634 -4.32631e-007 -4.08942e-007 4.36221e-007 -1.72076 -20.187 2.66912 -0.112612 35.4845 0.877322 4.13018 -16.8464 5.66716 4.31427e-007 1.47477e-008 2.03453e-007 1.86702 1.71514 -0.724588 1.86705 1.71514 -0.724541 -6.53203 -8.8207 -7.14138 -22.9047 12.1289 -6.03637 -38.2809 26.7958 0.00718536 -3.11416 1.01077 -32.8868 8.75164 9.79757 -4.3695 -1.59028e-015 0 3.18055e-015 -1.76556e-031 3.18056e-015 3.18055e-015 28.481 16.2574 15.85 40.0962 45.5377 -4.24738 -0.751219 -2.16246 29.8724 -1.69231 -6.21191 3.20574 3.18055e-015 -1.59028e-015 -3.97569e-016 1.59028e-015 -1.59028e-015 3.97569e-016 7.13835 -2.69882 -13.1049 
-16.5884 94.8509 -9.58477 2.40517 -2.42478 -158.373 0.983334 0.907961 -0.382985 0.0685213 -7.66211 0.838339 -0.00691082 12.0164 -0.0785498 8.1605 -6.49071 -14.6693 -4.32631e-007 -4.08942e-007 4.36221e-007 -2.7799 -20.25 2.00269 -0.115154 35.3936 0.77544 2.79716 -16.2139 7.40885 4.31427e-007 1.47477e-008 2.03453e-007 1.97289 1.80912 -0.77989 1.97288 1.80907 -0.779908 -6.15781 -9.39785 -6.40286 -23.3156 12.854 -6.36666 -38.6181 26.9009 0.373799 -2.96048 0.907611 -31.052 8.39701 9.84027 -4.15772 -3.18055e-015 0 6.36111e-015 -3.18055e-015 0 3.18055e-015 28.3052 16.4194 15.0227 40.8159 45.5981 -5.06027 -0.835588 -2.15605 29.2621 -1.36552 -5.88021 2.85365 -4.77083e-015 0 7.95139e-016 -3.18055e-015 1.59028e-015 -7.95139e-016 6.84883 -2.33214 -12.6011 
